<svg xmlns="http://www.w3.org/2000/svg" width="16" height="16" viewBox="0 0 16 16">
    <path d="M4 1h8a3 3 0 0 1 3 3v8a3 3 0 0 1-3 3H4a3 3 0 0 1-3-3V4a3 3 0 0 1 3-3z" fill="#1e40af"/>

    <g transform="translate(1.6,1.6)">
        <path d="M10.24 7.68H8.96V5.12h1.28a2.56 2.56 0 1 0-2.56-2.56v1.28H5.12V2.56a2.56 2.56 0 1 0-2.56 2.56h1.28v2.56H2.56a2.56 2.56 0 1 0 2.56 2.56V8.96h2.56v1.28a2.56 2.56 0 1 0 2.56-2.56m0-6.4a1.28 1.28 0 0 1 0 2.56H8.96V2.56a1.28 1.28 0 0 1 1.28-1.28M1.28 2.56a1.28 1.28 0 0 1 2.56 0v1.28H2.56a1.28 1.28 0 0 1-1.28-1.28m1.28 8.96a1.28 1.28 0 0 1 0-2.56h1.28v1.28a1.28 1.28 0 0 1-1.28 1.28m2.56-3.84V5.12h2.56v2.56zm5.12 3.84a1.28 1.28 0 0 1-1.28-1.28V8.96h1.28a1.28 1.28 0 0 1 0 2.56"/>
    </g>
</svg>
